C:\GBW_MyPrograms\KinderuniversiteitApp\Resultaten\TymenKool\Model1_v2.mot
version=1
nRows=12
nColumns=31
inDegrees=yes
endheader
                time	         pelvis_tilt	           pelvis_tx	           pelvis_ty	       hip_flexion_r	        knee_angle_r	       ankle_angle_r	       hip_flexion_l	        knee_angle_l	       ankle_angle_l	    lumbar_extension	          arm_flex_r	          arm_flex_l	hamstrings_r/activation	bifemsh_r/activation	glut_max_r/activation	iliopsoas_r/activation	rect_fem_r/activation	  vasti_r/activation	gastroc_r/activation	 soleus_r/activation	tib_ant_r/activation	hamstrings_l/activation	bifemsh_l/activation	glut_max_l/activation	iliopsoas_l/activation	rect_fem_l/activation	  vasti_l/activation	gastroc_l/activation	 soleus_l/activation	tib_ant_l/activation	
          0.87284512	         -1.97948512	          1.16088401	          1.04524686	        -18.40880989	        -15.62492833	         -3.44568375	         36.16143400	        -19.82188008	        -11.13711267	         -4.30886998	         -0.78459579	         -0.78460735	          0.26586516	          0.54267487	          0.54867943	          0.80301787	          0.86812644	          0.77869397	          0.84057294	          0.93799973	          0.11729664	          0.56462707	          0.70476837	          0.41008861	          0.73649209	          0.55702385	          0.29874556	          0.35377974	          0.09943519	          0.88549804	
          0.89030202	         -2.23680046	          1.19964979	          1.04559721	        -19.64741457	        -15.09004205	        -10.95543426	         36.36970284	        -23.45101487	        -10.54650836	         -2.74866722	         -3.10473721	         -3.10474906	          0.30049810	          0.50775016	          0.53504209	          0.68701230	          0.82622277	          0.81455638	          0.74359581	          0.88179802	          0.09752420	          0.65787416	          0.65020738	          0.50600354	          0.61234240	          0.54079506	          0.44577189	          0.39346071	          0.10273507	          0.78272369	
          0.90775893	         -2.49779186	          1.23962752	          1.04710623	        -21.24252362	        -13.50282985	        -19.92326455	         36.18913721	        -26.79584017	         -8.24093463	         -1.06942152	         -5.56007471	         -5.56008545	          0.44153695	          0.56395557	          0.59709675	          0.68977135	          0.73328271	          0.69745750	          0.65055865	          0.72885166	          0.40181612	          0.57785954	          0.58963569	          0.74177355	          0.51330060	          0.57406941	          0.72223757	          0.37412839	          0.08697132	          0.83825703	
          0.92521583	         -2.74113021	          1.27783560	          1.04946691	        -22.51476949	        -12.01488329	        -25.08102005	         35.93078518	        -29.96934334	         -5.00989981	          0.40808271	         -7.75921770	         -7.75922905	          0.50493032	          0.59677753	          0.56774847	          0.75517744	          0.68019982	          0.63994637	          0.65743872	          0.77785529	          0.32215699	          0.49494277	          0.53296738	          0.72708065	          0.45957489	          0.63340122	          0.85234020	          0.37061893	          0.07470423	          0.79172556	
          0.94267273	         -2.90853832	          1.31366074	          1.05289356	        -23.05675611	        -11.45030200	        -26.47372161	         35.19121168	        -32.18099763	         -2.17125854	          1.56409095	         -9.60773278	         -9.60774245	          0.55554146	          0.63443546	          0.56971131	          0.79228290	          0.62130092	          0.55510929	          0.60129491	          0.64680609	          0.53384273	          0.41800519	          0.48093606	          0.79854750	          0.40555535	          0.67503995	          0.90726310	          0.37163928	          0.06780285	          0.71190837	
          0.96012963	         -3.02717415	          1.34723352	          1.05747917	        -22.63238121	        -12.39254938	        -24.92233042	         33.91776661	        -33.29832232	          0.10413617	          2.45523108	        -11.12466406	        -11.12467466	          0.58697479	          0.66594105	          0.53519108	          0.80518552	          0.58360967	          0.48673222	          0.57675096	          0.57047265	          0.66820204	          0.36614351	          0.43439363	          0.79917509	          0.35531906	          0.69739495	          0.92081885	          0.37683029	          0.08708068	          0.60243111	
          0.97758654	         -3.07363868	          1.37880277	          1.06330502	        -21.43482443	        -14.32633036	        -23.45736919	         32.17115467	        -33.44317590	          1.55289510	          3.08843425	        -12.33321235	        -12.33322080	          0.55394501	          0.66798329	          0.51845931	          0.82386598	          0.59373537	          0.44982667	          0.56042525	          0.51808495	          0.72471143	          0.32435907	          0.38958835	          0.82770017	          0.31044242	          0.73524053	          0.92223689	          0.38445439	          0.23339353	          0.50610916	
          0.99504344	         -3.04530606	          1.40860336	          1.07041603	        -19.77001213	        -16.55583411	        -22.40384814	         29.99556039	        -32.67383312	          1.99668081	          3.49203750	        -13.25977909	        -13.25978857	          0.51602104	          0.66538005	          0.50356764	          0.83528878	          0.61893703	          0.43933350	          0.55570147	          0.50463445	          0.72562310	          0.29945487	          0.35249422	          0.85412115	          0.27610611	          0.76229871	          0.92060766	          0.41726102	          0.54342452	          0.42285300	
          1.01250034	         -2.93699110	          1.43683342	          1.07898111	        -17.95468380	        -18.38359021	        -21.65551042	         27.38571941	        -30.99462804	          1.46920315	          3.68732627	        -13.92527483	        -13.92528203	          0.48028682	          0.66116926	          0.48521893	          0.83587276	          0.64798638	          0.44518148	          0.55033654	          0.48755035	          0.72919886	          0.29236946	          0.32972181	          0.84606587	          0.25630736	          0.77298220	          0.90467529	          0.50580451	          0.74757186	          0.34691542	
          1.02995724	         -2.74787162	          1.46364754	          1.08912285	        -16.19355407	        -19.37651500	        -21.15131891	         24.33185564	        -28.40796297	          0.11903833	          3.69459457	        -14.34722104	        -14.34722897	          0.45913424	          0.64826586	          0.48234874	          0.80027950	          0.66355914	          0.49225997	          0.53879861	          0.45638168	          0.75058786	          0.31819476	          0.33500503	          0.74625795	          0.26686194	          0.74104088	          0.79759200	          0.66097794	          0.85044390	          0.27755220	
          1.04741415	         -2.48717171	          1.48915039	          1.10062335	        -14.59770037	        -19.49960799	        -20.89370197	         20.97204230	        -25.13971668	         -2.01317681	          3.53561549	        -14.54317350	        -14.54317945	          0.47699290	          0.61898059	          0.52044931	          0.70245996	          0.64995781	          0.57527691	          0.53060602	          0.45449045	          0.78618514	          0.36434053	          0.41949151	          0.61189689	          0.40256489	          0.66199080	          0.64977022	          0.77602424	          0.89791722	          0.21778571	
          1.06487105	         -2.17627702	          1.51330010	          1.11291748	        -13.22722667	        -19.10088786	        -20.96627336	         17.76897277	        -21.94006312	         -5.00270021	          3.22587898	        -14.51901945	        -14.51902551	          0.61631164	          0.59238606	          0.62115151	          0.57722037	          0.59712635	          0.63704433	          0.52104287	          0.43200533	          0.73032768	          0.30814056	          0.59650562	          0.49555279	          0.64925200	          0.57739156	          0.52903337	          0.82221009	          0.90890047	          0.17032354	
